<svg width="428" height="428" viewBox="0 0 428 428" fill="none" xmlns="http://www.w3.org/2000/svg">
<path d="M428 327.334H0V327.548H428V327.334Z" fill="#EBEBEB"/>
<path d="M385.114 341.107H356.764V341.321H385.114V341.107Z" fill="#EBEBEB"/>
<path d="M283.524 343.436H276.086V343.65H283.524V343.436Z" fill="#EBEBEB"/>
<path d="M355.908 333.164H339.481V333.378H355.908V333.164Z" fill="#EBEBEB"/>
<path d="M81.8764 334.602H44.9058V334.816H81.8764V334.602Z" fill="#EBEBEB"/>
<path d="M94.9218 334.602H89.5034V334.816H94.9218V334.602Z" fill="#EBEBEB"/>
<path d="M192.728 338.214H112.538V338.428H192.728V338.214Z" fill="#EBEBEB"/>
<path d="M202.872 289.157H37.587C36.2921 289.155 35.0511 288.639 34.1363 287.722C33.2215 286.806 32.7078 285.564 32.7078 284.269V51.925C32.719 50.6376 33.2378 49.4067 34.1514 48.4995C35.0649 47.5924 36.2995 47.0823 37.587 47.0801H202.872C204.168 47.0801 205.412 47.595 206.328 48.5117C207.245 49.4283 207.76 50.6715 207.76 51.9678V284.269C207.76 285.565 207.245 286.809 206.328 287.725C205.412 288.642 204.168 289.157 202.872 289.157ZM37.587 47.2513C36.3489 47.2535 35.1623 47.747 34.2876 48.6232C33.413 49.4995 32.9218 50.687 32.9218 51.925V284.269C32.9218 285.507 33.413 286.695 34.2876 287.571C35.1623 288.447 36.3489 288.941 37.587 288.943H202.872C204.111 288.941 205.298 288.447 206.174 287.571C207.05 286.695 207.544 285.508 207.546 284.269V51.925C207.544 50.6862 207.05 49.4987 206.174 48.6227C205.298 47.7467 204.111 47.2535 202.872 47.2513H37.587Z" fill="#EBEBEB"/>
<path d="M388.033 289.157H222.74C221.444 289.155 220.202 288.639 219.286 287.723C218.37 286.807 217.854 285.565 217.852 284.269V51.925C217.866 50.6369 218.386 49.4059 219.301 48.499C220.216 47.5921 221.451 47.0823 222.74 47.0801H388.033C389.319 47.0845 390.552 47.5956 391.463 48.5025C392.375 49.4094 392.893 50.6391 392.904 51.925V284.269C392.904 285.562 392.391 286.803 391.478 287.719C390.566 288.635 389.327 289.152 388.033 289.157ZM222.74 47.2513C221.501 47.2535 220.313 47.7467 219.437 48.6227C218.561 49.4987 218.068 50.6862 218.066 51.925V284.269C218.068 285.508 218.561 286.695 219.437 287.571C220.313 288.447 221.501 288.941 222.74 288.943H388.033C389.272 288.941 390.46 288.447 391.336 287.571C392.212 286.695 392.705 285.508 392.707 284.269V51.925C392.705 50.6862 392.212 49.4987 391.336 48.6227C390.46 47.7467 389.272 47.2535 388.033 47.2513H222.74Z" fill="#EBEBEB"/>
<path d="M119.061 295.063L123.264 304.685C124.053 306.504 125.357 308.052 127.015 309.139C128.672 310.227 130.612 310.806 132.594 310.805H150.117C152.441 310.804 154.67 309.88 156.314 308.237H189.039C190.303 308.237 191.549 307.937 192.674 307.361C193.799 306.785 194.771 305.95 195.51 304.925L199.833 298.933L119.061 295.063Z" fill="#E0E0E0"/>
<path d="M145.725 256.92C145.725 261.534 164.112 294.301 165.953 295.603C167.793 296.904 191.795 295.448 191.795 295.448L190.032 302.245H124.12L96.728 249.096L114.832 222.962L147.831 223.878C147.831 223.878 145.725 252.315 145.725 256.92Z" fill="#E6E6E6"/>
<path d="M145.725 256.92C145.725 261.534 164.112 294.301 165.953 295.603C167.793 296.904 191.795 295.448 191.795 295.448L190.032 302.245H124.12L96.728 249.096L114.832 222.962L147.831 223.878C147.831 223.878 145.725 252.315 145.725 256.92Z" fill="#F0F0F0"/>
<path d="M92.1826 327.565C107.032 327.565 119.07 313.044 119.07 295.132C119.07 277.219 107.032 262.698 92.1826 262.698C77.3334 262.698 65.2957 277.219 65.2957 295.132C65.2957 313.044 77.3334 327.565 92.1826 327.565Z" fill="#E0E0E0"/>
<path d="M87.6801 315.59C97.0454 315.59 104.637 306.431 104.637 295.132C104.637 283.833 97.0454 274.673 87.6801 274.673C78.3148 274.673 70.7227 283.833 70.7227 295.132C70.7227 306.431 78.3148 315.59 87.6801 315.59Z" fill="#EBEBEB"/>
<path d="M83.7853 286.341C79.8819 286.341 76.7233 290.15 76.7233 294.858C76.7233 299.566 79.8819 303.418 83.7853 303.418C87.6886 303.418 90.8473 299.6 90.8473 294.858C90.8473 290.116 87.6886 286.341 83.7853 286.341Z" fill="#E6E6E6"/>
<path d="M83.7853 286.341C79.8819 286.341 76.7233 290.15 76.7233 294.858C76.7233 299.566 79.8819 303.418 83.7853 303.418C87.6886 303.418 90.8473 299.6 90.8473 294.858C90.8473 290.116 87.6886 286.341 83.7853 286.341Z" fill="#E0E0E0"/>
<path d="M241.957 246.134C241.957 246.134 217.689 264.744 208.436 303.101H169.574L206.382 243.181L225.796 235.109L241.957 246.134Z" fill="#E6E6E6"/>
<path d="M244.508 244.242C244.508 244.242 221.807 261.602 210.97 294.241C210.132 296.811 208.504 299.052 206.318 300.642C204.133 302.233 201.501 303.094 198.797 303.101H169.574L206.382 243.181L225.796 235.109L244.508 244.242Z" fill="#E0E0E0"/>
<path d="M242.128 245.749H227.14C224.295 245.718 221.506 246.535 219.127 248.095C210.234 254.018 189.167 270.539 186.976 296.715C186.839 298.443 186.06 300.057 184.793 301.239C183.525 302.421 181.861 303.085 180.128 303.101H114.978C104.03 303.102 93.2783 300.199 83.8195 294.687L65.193 283.833C63.1894 282.658 61.6037 280.885 60.6581 278.764C59.7125 276.642 59.4544 274.278 59.92 272.003C62.137 261.32 68.3858 242.967 86.2677 235.794C86.5502 235.665 86.1222 235.554 86.9782 235.451V224.323H133.682C133.682 224.323 124.317 246.656 124.317 255.867C124.317 264.59 133.527 297.939 145.443 301.363H161.707C163.869 301.311 165.978 300.69 167.824 299.563C169.669 298.436 171.185 296.843 172.219 294.943C180.145 280.794 197.753 244.106 192.266 209.429C191.624 205.38 194.74 201.211 198.849 201.211H219.821C219.821 201.211 238.696 223.057 244.765 241.52C245.372 243.344 244.028 245.749 242.128 245.749Z" fill="#E6E6E6"/>
<path d="M208.487 194.312H202.495C200.922 194.309 199.397 193.768 198.173 192.78L185.855 182.808C185.37 182.416 184.766 182.202 184.143 182.2H160.491C160.037 182.2 159.602 182.02 159.281 181.698C158.96 181.377 158.779 180.942 158.779 180.488C158.779 180.034 158.96 179.598 159.281 179.277C159.602 178.956 160.037 178.776 160.491 178.776H184.151C185.559 178.778 186.925 179.261 188.02 180.145L200.347 190.118C200.958 190.617 201.723 190.889 202.512 190.888H208.504C209.336 190.885 210.139 190.583 210.767 190.038C211.396 189.493 211.808 188.741 211.928 187.918L212.468 184.075C212.683 182.607 213.417 181.266 214.537 180.293C215.657 179.321 217.088 178.783 218.571 178.776H223.082C223.536 178.776 223.972 178.956 224.293 179.277C224.614 179.598 224.794 180.034 224.794 180.488C224.794 180.942 224.614 181.377 224.293 181.698C223.972 182.02 223.536 182.2 223.082 182.2H218.571C217.912 182.203 217.276 182.442 216.778 182.874C216.28 183.306 215.954 183.902 215.858 184.554L215.318 188.397C215.078 190.038 214.256 191.539 213.002 192.624C211.748 193.71 210.146 194.309 208.487 194.312Z" fill="#E0E0E0"/>
<path d="M197.941 187.027C197.941 187.027 198.018 191.068 194.226 190.811L192.994 195.168C192.818 195.785 192.774 196.432 192.863 197.068C192.953 197.703 193.176 198.313 193.516 198.857L196.195 203.137H221.019L222.971 199.456C223.283 198.871 223.401 198.201 223.307 197.544C223.214 196.886 222.913 196.276 222.449 195.801L215.087 188.32C214.7 187.922 214.237 187.605 213.725 187.389C213.214 187.173 212.664 187.061 212.108 187.062L197.941 187.027Z" fill="#E6E6E6"/>
<path d="M197.941 187.027C197.941 187.027 198.018 191.068 194.226 190.811L192.994 195.168C192.818 195.785 192.774 196.432 192.863 197.068C192.953 197.703 193.176 198.313 193.516 198.857L196.195 203.137H221.019L222.971 199.456C223.283 198.871 223.401 198.201 223.307 197.544C223.214 196.886 222.913 196.276 222.449 195.801L215.087 188.32C214.7 187.922 214.237 187.605 213.725 187.389C213.214 187.173 212.664 187.061 212.108 187.062L197.941 187.027Z" fill="#E0E0E0"/>
<path d="M240.57 327.565C255.42 327.565 267.457 313.044 267.457 295.132C267.457 277.219 255.42 262.698 240.57 262.698C225.721 262.698 213.683 277.219 213.683 295.132C213.683 313.044 225.721 327.565 240.57 327.565Z" fill="#E0E0E0"/>
<path d="M236.076 315.59C245.442 315.59 253.034 306.431 253.034 295.132C253.034 283.833 245.442 274.673 236.076 274.673C226.711 274.673 219.119 283.833 219.119 295.132C219.119 306.431 226.711 315.59 236.076 315.59Z" fill="#EBEBEB"/>
<path d="M267.072 274.211C264.239 269.4 256.663 258.974 243.044 255.927C239.554 255.109 235.935 255.004 232.404 255.619L232.344 255.473L232.404 255.345H232.301L229.956 250.003H227.294C225.132 250.004 223.029 250.707 221.302 252.006L216.628 255.516L218.828 263.143C218.189 263.826 217.594 264.55 217.047 265.309C213.103 270.205 210.414 275.991 209.215 282.163C209.175 282.421 209.192 282.684 209.264 282.935C209.336 283.185 209.461 283.417 209.631 283.615C209.801 283.813 210.012 283.971 210.249 284.08C210.486 284.188 210.743 284.244 211.004 284.243H212.408C212.776 284.25 213.137 284.143 213.443 283.938C213.749 283.733 213.985 283.439 214.12 283.096C215.372 279.784 217.36 276.799 219.932 274.365L227.696 294.687L233.97 292.05L231.771 266.747C231.771 266.747 246.203 262.698 255.653 274.365C256.203 275.049 256.899 275.602 257.689 275.983C258.48 276.363 259.346 276.562 260.224 276.565H265.711C265.987 276.566 266.258 276.495 266.498 276.357C266.737 276.22 266.936 276.022 267.074 275.783C267.212 275.544 267.285 275.273 267.284 274.997C267.284 274.721 267.211 274.45 267.072 274.211Z" fill="#E6E6E6"/>
<path d="M267.072 274.211C264.239 269.4 256.663 258.974 243.044 255.927C239.554 255.109 235.935 255.004 232.404 255.619L232.344 255.473L232.404 255.345H232.301L229.956 250.003H227.294C225.132 250.004 223.029 250.707 221.302 252.006L216.628 255.516L218.828 263.143C218.189 263.826 217.594 264.55 217.047 265.309C213.103 270.205 210.414 275.991 209.215 282.163C209.175 282.421 209.192 282.684 209.264 282.935C209.336 283.185 209.461 283.417 209.631 283.615C209.801 283.813 210.012 283.971 210.249 284.08C210.486 284.188 210.743 284.244 211.004 284.243H212.408C212.776 284.25 213.137 284.143 213.443 283.938C213.749 283.733 213.985 283.439 214.12 283.096C215.372 279.784 217.36 276.799 219.932 274.365L227.696 294.687L233.97 292.05L231.771 266.747C231.771 266.747 246.203 262.698 255.653 274.365C256.203 275.049 256.899 275.602 257.689 275.983C258.48 276.363 259.346 276.562 260.224 276.565H265.711C265.987 276.566 266.258 276.495 266.498 276.357C266.737 276.22 266.936 276.022 267.074 275.783C267.212 275.544 267.285 275.273 267.284 274.997C267.284 274.721 267.211 274.45 267.072 274.211Z" fill="#F0F0F0"/>
<path d="M232.181 286.341C228.278 286.341 225.119 290.15 225.119 294.858C225.119 299.566 228.278 303.418 232.181 303.418C236.085 303.418 239.243 299.6 239.243 294.858C239.243 290.116 236.085 286.341 232.181 286.341Z" fill="#E6E6E6"/>
<path d="M232.181 286.341C228.278 286.341 225.119 290.15 225.119 294.858C225.119 299.566 228.278 303.418 232.181 303.418C236.085 303.418 239.243 299.6 239.243 294.858C239.243 290.116 236.085 286.341 232.181 286.341Z" fill="#E0E0E0"/>
<path d="M206.75 204.122C206.75 204.122 211.192 232.087 225.864 232.284C239.62 232.464 240.904 206.202 227.782 202.17C217.184 198.909 206.75 204.122 206.75 204.122Z" fill="#E6E6E6"/>
<path d="M206.75 204.122C206.75 204.122 211.192 232.087 225.864 232.284C239.62 232.464 240.904 206.202 227.782 202.17C217.184 198.909 206.75 204.122 206.75 204.122Z" fill="#F0F0F0"/>
<path d="M227.41 229.769C232.958 229.101 236.767 222.83 235.916 215.761C235.066 208.692 229.879 203.503 224.331 204.17C218.783 204.838 214.975 211.109 215.825 218.178C216.676 225.247 221.862 230.436 227.41 229.769Z" fill="#F5F5F5"/>
<path d="M222.064 198.635H209.318L210.328 196.991H222.064V198.635Z" fill="#E6E6E6"/>
<path d="M152.017 223.168V226.386C152.017 229.305 149.629 231.197 146.701 231.197H88.8186C85.8825 231.197 83.537 229.305 83.537 226.386V223.168C83.537 220.249 85.8825 218.357 88.8186 218.357H146.701C149.629 218.357 152.017 220.249 152.017 223.168Z" fill="#E0E0E0"/>
<path d="M133.185 223.168V226.387C133.217 227.037 133.111 227.687 132.873 228.293C132.634 228.9 132.27 229.448 131.804 229.903C131.338 230.358 130.78 230.709 130.168 230.932C129.556 231.155 128.904 231.245 128.254 231.197H88.8186C85.8825 231.197 83.537 229.306 83.537 226.387V223.168C83.537 220.249 85.8825 218.357 88.8186 218.357H128.254C128.904 218.309 129.556 218.4 130.168 218.623C130.78 218.846 131.338 219.196 131.804 219.651C132.27 220.106 132.634 220.655 132.873 221.261C133.111 221.867 133.217 222.517 133.185 223.168Z" fill="#F0F0F0"/>
<path d="M125.9 282.48V303.127H114.978C104.03 303.128 93.2783 300.224 83.8195 294.712L65.193 283.833C63.1894 282.658 61.6037 280.885 60.6581 278.764C59.7125 276.642 59.4544 274.278 59.92 272.003C62.137 261.32 68.48 242.967 86.3961 235.794L87.2521 235.837H94.4853C98.6581 235.839 102.744 237.03 106.264 239.271C109.784 241.511 112.593 244.709 114.362 248.488L122.066 265.009C124.607 270.482 125.916 276.446 125.9 282.48Z" fill="#F0F0F0"/>
<path d="M174.237 167.18L172.877 168.22L182.149 180.343L183.509 179.303L174.237 167.18Z" fill="#E0E0E0"/>
<path d="M168.632 165.713H172.998C173.451 165.714 173.894 165.847 174.273 166.097C174.651 166.346 174.949 166.701 175.129 167.117L175.711 168.478C175.861 168.83 175.921 169.214 175.886 169.596C175.852 169.977 175.723 170.344 175.512 170.664C175.301 170.983 175.014 171.246 174.677 171.427C174.34 171.609 173.963 171.704 173.58 171.705H168.829C168.271 171.706 167.732 171.506 167.31 171.141C166.889 170.776 166.613 170.271 166.535 169.719L166.338 168.358C166.291 168.029 166.316 167.695 166.41 167.376C166.504 167.058 166.665 166.763 166.882 166.513C167.1 166.262 167.368 166.061 167.67 165.923C167.972 165.785 168.3 165.713 168.632 165.713Z" fill="#E6E6E6"/>
<path d="M217.798 169.098L215.516 179.937L217.191 180.289L219.473 169.45L217.798 169.098Z" fill="#E0E0E0"/>
<path d="M223.767 165.713H219.068C218.607 165.713 218.162 165.879 217.814 166.181C217.467 166.483 217.24 166.9 217.176 167.356L216.859 169.522C216.821 169.794 216.842 170.07 216.92 170.333C216.998 170.596 217.132 170.84 217.312 171.046C217.492 171.253 217.714 171.419 217.964 171.533C218.214 171.646 218.485 171.705 218.759 171.705H223.416C223.877 171.705 224.322 171.539 224.669 171.237C225.017 170.935 225.244 170.517 225.308 170.061L225.624 167.896C225.662 167.628 225.642 167.354 225.567 167.094C225.491 166.834 225.361 166.593 225.186 166.387C225.01 166.181 224.793 166.014 224.549 165.898C224.304 165.782 224.038 165.719 223.767 165.713Z" fill="#E6E6E6"/>
<path d="M101.094 218.357V230.059L103.148 231.197V237.651C92.1056 239.483 85.6514 262.253 85.6514 262.253H47.799C46.9706 262.253 46.1502 262.09 45.3848 261.773C44.6194 261.456 43.9239 260.991 43.3381 260.405C42.7523 259.819 42.2876 259.124 41.9705 258.358C41.6535 257.593 41.4903 256.773 41.4903 255.944V144.245C41.4903 142.572 42.155 140.967 43.3381 139.784C44.5212 138.601 46.1259 137.936 47.799 137.936H121.954C122.949 137.934 123.93 138.172 124.813 138.629C125.847 139.158 126.713 139.963 127.318 140.954C127.922 141.945 128.24 143.084 128.237 144.245V218.357H101.094Z" fill="#E6E6E6"/>
<path d="M101.094 218.357V230.059L103.148 231.197V237.651C92.1056 239.483 85.6514 262.253 85.6514 262.253H77.896V144.193C77.896 142.718 78.4822 141.303 79.5257 140.259C80.5691 139.216 81.9843 138.629 83.46 138.629H124.83C125.864 139.158 126.73 139.963 127.335 140.954C127.939 141.945 128.257 143.084 128.254 144.245V218.357H101.094Z" fill="#EBEBEB"/>
<path d="M386.818 77.7251H264.316V326.41H386.818V77.7251Z" fill="#EBEBEB"/>
<path d="M358.613 106.059H329.226V135.445H358.613V106.059Z" fill="#F5F5F5"/>
<path d="M322.335 106.059H292.949V135.445H322.335V106.059Z" fill="#F5F5F5"/>
<path d="M322.335 142.344H292.949V171.731H322.335V142.344Z" fill="#F5F5F5"/>
<path d="M358.613 142.344H329.226V171.731H358.613V142.344Z" fill="#F5F5F5"/>
<path d="M280.622 208.205C280.622 209.153 280.341 210.08 279.815 210.868C279.288 211.656 278.539 212.271 277.663 212.633C276.787 212.996 275.824 213.091 274.894 212.906C273.964 212.721 273.11 212.265 272.439 211.594C271.769 210.924 271.312 210.07 271.127 209.14C270.942 208.21 271.037 207.246 271.4 206.37C271.763 205.494 272.377 204.746 273.166 204.219C273.954 203.692 274.881 203.411 275.829 203.411C276.458 203.411 277.082 203.535 277.663 203.776C278.245 204.017 278.773 204.37 279.218 204.815C279.664 205.26 280.017 205.789 280.258 206.37C280.498 206.952 280.622 207.575 280.622 208.205Z" fill="#E0E0E0"/>
<path d="M100.683 102.489C100.683 101.212 100.176 99.9876 99.2742 99.0841C98.3723 98.1806 97.1487 97.6718 95.872 97.6695C95.4052 97.6717 94.941 97.7409 94.4938 97.875C94.563 97.3844 94.5973 96.8895 94.5966 96.3941C94.5966 93.688 93.5216 91.0927 91.608 89.1791C89.6945 87.2656 87.0992 86.1906 84.393 86.1906C83.7638 86.1893 83.1359 86.2495 82.5184 86.3703C81.5128 84.718 79.9972 83.4373 78.2003 82.7213C76.4033 82.0054 74.4223 81.893 72.5559 82.4012C70.6895 82.9093 69.0388 84.0104 67.8528 85.5385C66.6668 87.0666 66.0097 88.9388 65.9805 90.8729H65.8264C63.6917 90.9418 61.6676 91.8382 60.1819 93.3726C58.6962 94.907 57.8656 96.959 57.8656 99.0948C57.8656 101.231 58.6962 103.283 60.1819 104.817C61.6676 106.351 63.6917 107.248 65.8264 107.317H96.009C97.2647 107.283 98.4572 106.759 99.3309 105.856C100.205 104.954 100.69 103.745 100.683 102.489Z" fill="#F5F5F5"/>
<path d="M206.228 74.8401C206.223 74.0598 205.91 73.313 205.357 72.7629C204.803 72.2128 204.055 71.904 203.274 71.904C202.985 71.9027 202.696 71.9431 202.418 72.0238C202.463 71.7263 202.486 71.4259 202.487 71.125C202.491 70.2051 202.291 69.2958 201.901 68.4623C201.512 67.6288 200.943 66.8918 200.235 66.3042C199.527 65.7167 198.698 65.2932 197.807 65.064C196.916 64.8349 195.986 64.8058 195.082 64.9789C194.468 63.9624 193.539 63.1738 192.436 62.7328C191.333 62.2917 190.117 62.2222 188.971 62.5348C187.825 62.8474 186.812 63.5251 186.086 64.4651C185.36 65.4051 184.96 66.5561 184.947 67.7438H184.896C184.217 67.7158 183.539 67.8254 182.904 68.0659C182.268 68.3065 181.688 68.673 181.197 69.1436C180.707 69.6141 180.317 70.1789 180.05 70.8041C179.784 71.4292 179.646 72.1018 179.646 72.7814C179.646 73.461 179.784 74.1336 180.05 74.7587C180.317 75.3838 180.707 75.9487 181.197 76.4192C181.688 76.8897 182.268 77.2563 182.904 77.4968C183.539 77.7374 184.217 77.8469 184.896 77.8189H203.386C204.154 77.79 204.881 77.4626 205.411 76.9064C205.942 76.3501 206.235 75.6088 206.228 74.8401Z" fill="#F5F5F5"/>
<path d="M214 365.991C305.663 365.991 379.97 361.653 379.97 356.301C379.97 350.95 305.663 346.611 214 346.611C122.337 346.611 48.0302 350.95 48.0302 356.301C48.0302 361.653 122.337 365.991 214 365.991Z" fill="#F5F5F5"/>
<path d="M98.44 335.398C98.44 335.398 102.72 326.11 97.8408 316.951C92.9616 307.792 91.5578 305.635 94.665 303.752C97.7723 301.868 99.1847 311.079 99.1847 311.079C100.725 306.923 100.887 302.382 99.647 298.128C97.4813 291.502 96.1288 280.708 99.082 279.544C102.035 278.38 99.6384 293.009 102.198 297.999C103.5 294.5 104.34 290.845 104.697 287.128C105.057 281.804 104.5 273.304 106.829 271.121C109.157 268.938 110.647 270.453 108.361 282.197C107.004 289.219 106.263 296.345 106.144 303.495C106.144 303.495 111.194 288.087 114.584 287.633C117.974 287.179 118.008 292.178 115.072 296.501C112.136 300.824 106.572 308.579 105.656 312.568C105.656 312.568 111.203 300.978 116.185 304.53C121.167 308.083 111.845 315.085 107.685 317.619C103.525 320.152 100.64 336.014 100.64 336.014L98.44 335.398Z" fill="#009944"/>
<path opacity="0.6" d="M98.44 335.398C98.44 335.398 102.72 326.11 97.8408 316.951C92.9616 307.792 91.5578 305.635 94.665 303.752C97.7723 301.868 99.1847 311.079 99.1847 311.079C100.725 306.923 100.887 302.382 99.647 298.128C97.4813 291.502 96.1288 280.708 99.082 279.544C102.035 278.38 99.6384 293.009 102.198 297.999C103.5 294.5 104.34 290.845 104.697 287.128C105.057 281.804 104.5 273.304 106.829 271.121C109.157 268.938 110.647 270.453 108.361 282.197C107.004 289.219 106.263 296.345 106.144 303.495C106.144 303.495 111.194 288.087 114.584 287.633C117.974 287.179 118.008 292.178 115.072 296.501C112.136 300.824 106.572 308.579 105.656 312.568C105.656 312.568 111.203 300.978 116.185 304.53C121.167 308.083 111.845 315.085 107.685 317.619C103.525 320.152 100.64 336.014 100.64 336.014L98.44 335.398Z" fill="white"/>
<path d="M101.864 339.207C101.864 339.207 97.721 329.859 102.72 320.769C107.719 311.678 109.131 309.546 106.05 307.629C102.968 305.712 101.436 314.888 101.436 314.888C99.9521 310.708 99.8471 306.163 101.136 301.92C103.379 295.328 104.86 284.551 101.924 283.353C98.9878 282.154 101.205 296.809 98.5855 301.757C97.3251 298.237 96.5281 294.568 96.2144 290.843C95.9234 285.519 96.5739 277.027 94.2798 274.819C91.9858 272.61 90.4621 274.082 92.5678 285.861C93.8598 292.899 94.5357 300.037 94.588 307.192C94.588 307.192 89.7173 291.707 86.3276 291.211C82.9378 290.714 82.9036 295.696 85.737 300.071C88.5703 304.445 94.1001 312.277 94.9646 316.275C94.9646 316.275 89.5633 304.599 84.53 308.083C79.4967 311.567 88.7415 318.697 92.876 321.291C97.0105 323.884 99.724 339.789 99.724 339.789L101.864 339.207Z" fill="#009944"/>
<path opacity="0.7" d="M101.864 339.207C101.864 339.207 97.721 329.859 102.72 320.769C107.719 311.678 109.131 309.546 106.05 307.629C102.968 305.712 101.436 314.888 101.436 314.888C99.9521 310.708 99.8471 306.163 101.136 301.92C103.379 295.328 104.86 284.551 101.924 283.353C98.9878 282.154 101.205 296.809 98.5855 301.757C97.3251 298.237 96.5281 294.568 96.2144 290.843C95.9234 285.519 96.5739 277.027 94.2798 274.819C91.9858 272.61 90.4621 274.082 92.5678 285.861C93.8598 292.899 94.5357 300.037 94.588 307.192C94.588 307.192 89.7173 291.707 86.3276 291.211C82.9378 290.714 82.9036 295.696 85.737 300.071C88.5703 304.445 94.1001 312.277 94.9646 316.275C94.9646 316.275 89.5633 304.599 84.53 308.083C79.4967 311.567 88.7415 318.697 92.876 321.291C97.0105 323.884 99.724 339.789 99.724 339.789L101.864 339.207Z" fill="white"/>
<path d="M82.7153 332.539H116.972L114.199 357.054H85.4887L82.7153 332.539Z" fill="#009944"/>
<path d="M304.274 331.691C303.167 331.697 302.063 331.571 300.987 331.315C300.715 331.243 300.459 331.119 300.235 330.949C300.011 330.779 299.823 330.566 299.681 330.323C299.539 330.081 299.447 329.812 299.408 329.534C299.37 329.255 299.387 328.972 299.459 328.699C299.53 328.427 299.654 328.172 299.824 327.948C299.994 327.724 300.207 327.536 300.45 327.394C300.693 327.252 300.961 327.159 301.24 327.121C301.518 327.083 301.802 327.1 302.074 327.172C302.134 327.172 306.611 328.284 308.793 325.674C309.448 324.941 309.929 324.071 310.201 323.126C310.472 322.182 310.526 321.189 310.36 320.221C309.769 317.353 306.936 314.58 302.262 312.192C293.283 307.638 294.875 302.519 295.577 301.064C297.049 298.008 300.952 296.253 303.606 297.468C303.868 297.581 304.105 297.744 304.303 297.949C304.501 298.154 304.656 298.397 304.759 298.662C304.862 298.928 304.911 299.212 304.903 299.497C304.895 299.782 304.83 300.062 304.712 300.322C304.594 300.581 304.425 300.815 304.216 301.008C304.006 301.201 303.76 301.351 303.492 301.448C303.224 301.545 302.939 301.587 302.655 301.573C302.37 301.558 302.091 301.487 301.834 301.363C301.308 301.401 300.803 301.58 300.37 301.881C299.938 302.183 299.595 302.595 299.377 303.075C298.795 304.556 300.644 306.593 304.197 308.399C310.189 311.438 313.681 315.136 314.546 319.391C314.847 320.987 314.781 322.631 314.354 324.198C313.927 325.766 313.15 327.215 312.08 328.438C311.101 329.524 309.892 330.379 308.542 330.942C307.193 331.504 305.735 331.76 304.274 331.691Z" fill="#263238"/>
<g opacity="0.2">
<path d="M304.274 331.691C303.167 331.697 302.063 331.571 300.987 331.315C300.715 331.243 300.459 331.119 300.235 330.949C300.011 330.779 299.823 330.566 299.681 330.323C299.539 330.081 299.447 329.812 299.408 329.534C299.37 329.255 299.387 328.972 299.459 328.699C299.53 328.427 299.654 328.172 299.824 327.948C299.994 327.724 300.207 327.536 300.45 327.394C300.693 327.252 300.961 327.159 301.24 327.121C301.518 327.083 301.802 327.1 302.074 327.172C302.134 327.172 306.611 328.284 308.793 325.674C309.448 324.941 309.929 324.071 310.201 323.126C310.472 322.182 310.526 321.189 310.36 320.221C309.769 317.353 306.936 314.58 302.262 312.192C293.283 307.638 294.875 302.519 295.577 301.064C297.049 298.008 300.952 296.253 303.606 297.468C303.868 297.581 304.105 297.744 304.303 297.949C304.501 298.154 304.656 298.397 304.759 298.662C304.862 298.928 304.911 299.212 304.903 299.497C304.895 299.782 304.83 300.062 304.712 300.322C304.594 300.581 304.425 300.815 304.216 301.008C304.006 301.201 303.76 301.351 303.492 301.448C303.224 301.545 302.939 301.587 302.655 301.573C302.37 301.558 302.091 301.487 301.834 301.363C301.308 301.401 300.803 301.58 300.37 301.881C299.938 302.183 299.595 302.595 299.377 303.075C298.795 304.556 300.644 306.593 304.197 308.399C310.189 311.438 313.681 315.136 314.546 319.391C314.847 320.987 314.781 322.631 314.354 324.198C313.927 325.766 313.15 327.215 312.08 328.438C311.101 329.524 309.892 330.379 308.542 330.942C307.193 331.504 305.735 331.76 304.274 331.691Z" fill="white"/>
</g>
<path d="M277.789 334.824L277.216 333.574C275.264 333.292 273.304 332.95 271.352 332.633C272.653 340.251 274.519 347.761 276.933 355.103C276.933 355.103 273.723 354.983 274.81 357.054H279.844C280.426 356.353 274.776 344.112 277.789 334.824Z" fill="#263238"/>
<path d="M288.078 335.004C288.078 335.004 290.415 342.083 295.003 346.714L291.536 354.889C291.536 354.889 288.754 355.522 289.319 357.054H293.206C293.206 357.054 298.573 348.075 298.804 347.108C299.035 346.14 300.045 336.211 300.045 336.211L288.078 335.004Z" fill="#263238"/>
<path opacity="0.2" d="M277.789 334.824L277.216 333.574C275.264 333.292 273.304 332.95 271.352 332.633C272.653 340.251 274.519 347.761 276.933 355.103C276.933 355.103 273.723 354.983 274.81 357.054H279.844C280.426 356.353 274.776 344.112 277.789 334.824Z" fill="white"/>
<path opacity="0.2" d="M288.078 335.004C288.078 335.004 290.415 342.083 295.003 346.714L291.536 354.889C291.536 354.889 288.754 355.522 289.319 357.054H293.206C293.206 357.054 298.573 348.075 298.804 347.108C299.035 346.14 300.045 336.211 300.045 336.211L288.078 335.004Z" fill="white"/>
<path d="M304.736 328.807C301.877 324.792 296.989 326.615 282.899 321.796C268.81 316.977 274.434 301.928 274.434 301.928L269.726 305.703L264.727 302.827C263.888 303.786 263.295 304.935 262.997 306.173C262.698 307.412 262.705 308.705 263.015 309.94C264.033 314.349 267.295 321.231 267.646 326.324L264.992 335.449C264.992 335.449 256.021 337.332 255.225 339.233C254.429 341.133 255.79 344.189 255.79 344.189L258.281 343.992L256.98 340.568C261.097 339.19 268.108 339.053 269.563 338.368C271.588 337.347 273.369 335.902 274.785 334.131C275.718 334.91 281.342 339.044 295.868 338.95C295.868 338.95 300.738 345.481 305.797 347.125L306.602 355.017C306.602 355.017 303.538 355.154 303.657 357.038H309.067L309.598 345.858C306.362 337.486 307.492 332.719 304.736 328.807Z" fill="#263238"/>
<path opacity="0.4" d="M304.736 328.807C301.877 324.792 296.989 326.615 282.899 321.796C268.81 316.977 274.434 301.928 274.434 301.928L269.726 305.703L264.727 302.827C263.888 303.786 263.295 304.935 262.997 306.173C262.698 307.412 262.705 308.705 263.015 309.94C264.033 314.349 267.295 321.231 267.646 326.324L264.992 335.449C264.992 335.449 256.021 337.332 255.225 339.233C254.429 341.133 255.79 344.189 255.79 344.189L258.281 343.992L256.98 340.568C261.097 339.19 268.108 339.053 269.563 338.368C271.588 337.347 273.369 335.902 274.785 334.131C275.718 334.91 281.342 339.044 295.868 338.95C295.868 338.95 300.738 345.481 305.797 347.125L306.602 355.017C306.602 355.017 303.538 355.154 303.657 357.038H309.067L309.598 345.858C306.362 337.486 307.492 332.719 304.736 328.807Z" fill="white"/>
<path d="M268.168 307.526C267.971 307.911 267.654 308.151 267.457 308.048C267.26 307.946 267.269 307.552 267.457 307.192C267.646 306.833 267.971 306.568 268.168 306.67C268.365 306.773 268.365 307.141 268.168 307.526Z" fill="#263238"/>
<path d="M265.249 303.024C265.249 303.024 264.769 302.596 264.598 302.596C264.427 302.596 264.213 303.452 264.213 303.452L265.249 303.024Z" fill="#A24E3F"/>
<path opacity="0.2" d="M269.708 305.703C270.302 306.192 270.842 306.743 271.318 307.346L273.175 303.452L269.708 305.703Z" fill="black"/>
<path d="M273.064 165.807C273.064 165.807 273.304 163.008 272.568 162.05C271.831 161.091 263.152 155.527 262.715 156.135C262.278 156.742 260.481 161.271 260.584 162.597C260.686 163.924 267.312 169.779 268.288 169.06C269.263 168.341 273.064 165.807 273.064 165.807Z" fill="#B97964"/>
<path d="M314.006 153.318C307.415 153.995 296.073 174.145 292.855 173.974C289.636 173.802 271.181 163.65 271.181 163.65L267.928 168.555C267.928 168.555 288.472 183.184 294.045 182.85C299.617 182.517 315.547 162.974 315.547 162.974L314.006 153.318Z" fill="#B97964"/>
<path d="M322.344 314.914C327.805 321.762 332.71 328.011 336.99 332.548C341.27 337.144 343.479 339.995 343.479 339.995L347.707 337.564C347.707 337.564 343.795 331.375 338.488 322.841C333.977 315.599 328.456 306.662 323.44 298.385C316.951 287.685 311.31 278.089 309.821 274.656C308.759 272.217 311.635 262.844 314.811 254.01C318.038 245.013 321.582 236.564 321.582 236.564L310.035 217.005C310.035 217.005 305.335 230.025 301.158 243.763C298.41 252.751 295.911 262.056 295.063 268.236C293.882 276.874 308.785 297.888 322.344 314.914Z" fill="#B97964"/>
<path opacity="0.2" d="M322.301 314.914C327.762 321.762 333.01 328.011 336.913 332.547C337.469 329.757 338.034 326.453 338.48 322.849C333.968 315.607 328.447 306.671 323.431 298.393C323.537 303.922 323.159 309.451 322.301 314.914Z" fill="black"/>
<path opacity="0.2" d="M301.158 243.772L314.811 254.044C318.038 245.047 321.582 236.599 321.582 236.599L310.035 217.039C310.035 217.039 305.335 230.033 301.158 243.772Z" fill="black"/>
<path d="M325.006 349.993L329.928 350.635C329.928 350.635 336.99 315.873 336.776 287.188C339.398 277.696 341.445 268.054 342.905 258.315C344.617 246.571 345.473 233.491 343.196 223.733L326.076 231.437L325.725 257.117L325.434 278.517L325.006 349.993Z" fill="#B97964"/>
<path opacity="0.2" d="M325.725 257.117L342.905 258.315C344.617 246.571 345.473 233.491 343.196 223.733L326.076 231.437L325.725 257.117Z" fill="black"/>
<path d="M347.425 334.876C346.92 334.508 342.657 340.868 342.657 340.868C342.657 340.868 343.607 347.519 341.69 351.816C339.772 356.113 343.504 355.745 346.603 351.67L354.307 341.612C356.498 338.753 352.672 338.676 347.425 334.876Z" fill="#263238"/>
<path d="M341.082 345.73C340.963 345.717 340.849 345.679 340.745 345.621C340.641 345.563 340.55 345.484 340.477 345.39C340.403 345.296 340.349 345.188 340.318 345.073C340.287 344.958 340.279 344.838 340.294 344.72C340.437 344.157 340.733 343.644 341.15 343.239C340.508 343.539 339.858 343.727 339.524 343.496C339.19 343.265 339.233 343.085 339.318 342.709C339.347 342.54 339.414 342.38 339.513 342.241C339.613 342.101 339.742 341.986 339.892 341.904C340.868 341.339 342.665 341.904 342.76 341.904L342.828 341.947V341.998V342.058V342.135C342.708 342.691 342.083 345.448 341.116 345.679L341.082 345.73ZM342.4 342.649C341.724 343.222 340.774 344.147 340.688 344.772C340.677 344.831 340.679 344.893 340.694 344.952C340.709 345.011 340.736 345.066 340.774 345.114C340.962 345.354 341.082 345.328 341.125 345.319C341.544 345.208 342.092 343.838 342.4 342.649ZM341.056 342.058C340.736 342.043 340.418 342.111 340.132 342.255C340.032 342.311 339.946 342.389 339.88 342.482C339.813 342.575 339.768 342.682 339.746 342.794C339.746 342.905 339.695 343.102 339.746 343.162C340.037 343.359 341.176 342.854 342.203 342.212C341.828 342.118 341.443 342.067 341.056 342.058Z" fill="#009944"/>
<path d="M331.674 347.536C331.674 346.911 323.97 347.399 323.97 347.399C323.97 347.399 319.262 352.193 314.683 353.271C310.103 354.35 312.663 357.098 317.781 357.098H330.442C334.097 357.055 331.828 353.956 331.674 347.536Z" fill="#263238"/>
<path d="M319.964 349.317C319.728 349.334 319.493 349.271 319.297 349.137C319.183 349.039 319.104 348.907 319.07 348.761C319.037 348.615 319.05 348.462 319.108 348.324C319.134 348.212 319.184 348.107 319.255 348.017C319.326 347.927 319.416 347.853 319.519 347.802C320.061 347.582 320.654 347.517 321.231 347.614C320.615 347.28 320.067 346.877 320.041 346.475C320.041 346.21 320.195 345.996 320.546 345.833C320.702 345.761 320.871 345.724 321.043 345.724C321.214 345.724 321.384 345.761 321.539 345.833C322.575 346.27 323.251 348.042 323.251 348.136C323.259 348.161 323.259 348.188 323.251 348.213C323.255 348.235 323.255 348.259 323.251 348.281C323.254 348.298 323.254 348.316 323.251 348.333C323.235 348.357 323.211 348.375 323.183 348.384C322.173 348.88 321.083 349.196 319.964 349.317ZM320.623 347.982C320.312 347.965 320 348.024 319.716 348.153C319.663 348.179 319.616 348.216 319.579 348.262C319.543 348.308 319.516 348.361 319.502 348.418C319.425 348.718 319.502 348.795 319.553 348.82C319.913 349.12 321.317 348.701 322.447 348.221C321.849 348.079 321.238 347.998 320.623 347.982ZM321.068 346.107C320.947 346.112 320.828 346.141 320.718 346.193C320.615 346.244 320.444 346.347 320.444 346.449C320.444 346.792 321.565 347.391 322.695 347.819C322.447 347.144 321.987 346.568 321.385 346.175C321.285 346.133 321.177 346.109 321.068 346.107Z" fill="#009944"/>
<path d="M318.124 249.199L299.6 239.501C305.429 221.798 310.677 211.766 310.677 211.766C328.875 214.882 327.215 229.263 327.215 229.263C327.215 229.263 322.584 238.867 318.124 249.199Z" fill="#263238"/>
<path opacity="0.1" d="M319.288 246.468C318.894 247.367 318.492 248.283 318.098 249.199L299.6 239.501C305.421 221.798 310.668 211.766 310.668 211.766C321.899 213.692 325.562 219.907 326.727 224.384C327.157 225.972 327.319 227.621 327.206 229.263C327.206 229.263 323.38 237.241 319.288 246.468Z" fill="white"/>
<path opacity="0.2" d="M319.288 246.468C323.354 237.241 327.197 229.263 327.197 229.263C327.311 227.621 327.149 225.972 326.718 224.383C326.139 224.009 325.499 223.739 324.826 223.587C324.826 223.587 319.904 231.351 319.288 246.468Z" fill="black"/>
<path d="M323.859 253.196L324.492 223.587L309.821 219.307C309.821 219.307 310.976 205.723 312.688 199.029C312.688 199.029 336.528 193.097 340.157 201.177C340.157 201.177 340.157 201.306 340.209 201.348L340.269 201.417C340.269 201.417 347.117 213.469 345.071 253.205L323.859 253.196Z" fill="#263238"/>
<path opacity="0.1" d="M323.859 253.196L324.492 223.587L309.821 219.307C309.821 219.307 310.976 205.723 312.688 199.029C312.688 199.029 336.528 193.097 340.157 201.177C340.157 201.177 340.157 201.306 340.209 201.348L340.269 201.417C340.269 201.417 347.117 213.469 345.071 253.205L323.859 253.196Z" fill="white"/>
<path d="M340.414 197.069V201.109L313.022 198.995V194.209L340.414 197.069Z" fill="#263238"/>
<path d="M330.806 202.31L332.174 202.38L332.531 195.405L331.163 195.335L330.806 202.31Z" fill="#263238"/>
<path d="M318.777 199.761L324.813 200.302L325.223 195.723L319.187 195.183L318.777 199.761Z" fill="white"/>
<path d="M313.326 200.538L314.696 200.606L315.045 193.621L313.676 193.553L313.326 200.538Z" fill="#263238"/>
<path opacity="0.1" d="M331.169 195.38L330.812 202.356L332.18 202.426L332.537 195.45L331.169 195.38Z" fill="white"/>
<path opacity="0.1" d="M314.266 193.506L313.91 200.481L315.278 200.551L315.634 193.575L314.266 193.506Z" fill="white"/>
<path d="M312.688 194.697L340.286 197.086C340.945 186.814 341.595 180.205 347.673 161.921C348.204 160.318 348.774 158.62 349.385 156.828C345.643 155.64 341.822 154.722 337.949 154.08C333.853 153.354 329.711 152.916 325.554 152.771C320.178 152.771 314.015 153.335 314.015 153.335C314.015 153.335 313.159 153.549 312.586 159.233C312.072 164.566 311.584 175.258 312.688 194.697Z" fill="#009944"/>
<path opacity="0.6" d="M349.394 156.828C348.769 158.617 348.195 160.321 347.682 161.921C347.168 163.522 346.586 165.251 346.106 166.775C344.977 170.37 344.086 173.469 343.376 176.191C341.61 183.015 340.577 190.008 340.294 197.052L312.697 194.663C311.584 175.224 312.08 164.532 312.586 159.182C313.142 153.498 314.015 153.284 314.015 153.284C314.015 153.284 315.65 153.122 317.978 152.976C320.161 152.831 322.952 152.702 325.554 152.719C329.71 152.881 333.849 153.336 337.94 154.08C340.311 154.474 342.665 154.936 344.985 155.57C346.469 155.946 347.938 156.366 349.394 156.828Z" fill="white"/>
<path d="M346.834 251.981L322.652 251.767L323.08 255.405L345.764 255.191L346.834 251.981Z" fill="#009944"/>
<path d="M319.656 248.985L299.54 238.071L298.47 241.281L317.944 250.911L319.656 248.985Z" fill="#009944"/>
<path d="M327.848 158.857C334.653 158.001 336.699 155.073 336.699 155.073C333.917 152.454 334.422 148.585 335.133 146.171C335.353 145.406 335.64 144.661 335.989 143.945L327.754 145.52C327.943 146.652 328.049 147.797 328.071 148.944C328.101 149.807 328.023 150.669 327.839 151.512C327.283 153.961 325.888 153.995 325.888 153.995C324.424 156.648 327.848 158.857 327.848 158.857Z" fill="#B97964"/>
<path opacity="0.2" d="M328.071 148.944C328.101 149.807 328.023 150.669 327.839 151.512C331.092 151.084 333.558 148.482 335.107 146.222C335.328 145.457 335.614 144.712 335.963 143.997L327.754 145.52C327.943 146.652 328.048 147.797 328.071 148.944Z" fill="black"/>
<path d="M339.986 124.257C339.986 124.257 344.711 120.08 349.402 122.22C354.093 124.36 354.538 127.758 352.74 131.482C350.943 135.205 349.479 138.475 351.448 139.828C353.417 141.18 352.852 144.236 350.934 145.135C349.017 146.034 347.767 147.181 349.916 148.14C349.916 148.14 349.573 148.328 347.767 147.181C345.961 146.034 347.433 144.784 347.998 143.945C348.563 143.106 347.545 144.151 345.85 141.702C344.155 139.254 345.285 136.566 346.192 133.75C347.099 130.934 340.842 131.311 340.842 131.311L339.986 124.257Z" fill="#263238"/>
<path d="M336.545 120.696C336.545 120.696 331.486 117.375 326.273 118.017C321.06 118.659 316.155 124.754 317.653 129.051C319.151 133.348 320.726 135.368 319.262 136.952C317.799 138.535 317.174 141.42 319.151 142.67C318.802 142.279 318.608 141.773 318.608 141.249C318.608 140.725 318.802 140.219 319.151 139.828C320.392 138.304 325.04 139.092 326.273 135.651C327.506 132.209 333.48 131.311 333.48 131.311L337.041 142.704C337.041 142.704 342.623 141.155 343.188 133.074C343.752 124.993 341.184 119.909 336.545 120.696Z" fill="#263238"/>
<path d="M329.423 122.793C322.301 123.059 320.153 126.962 319.904 134.324C319.588 143.517 321.865 149.963 330.698 147.669C342.7 144.562 341.253 122.357 329.423 122.793Z" fill="#B97964"/>
<path d="M324.492 133.75C323.96 134.835 323.299 135.852 322.524 136.78C322.743 137.067 323.038 137.287 323.374 137.417C323.711 137.547 324.077 137.581 324.433 137.516L324.492 133.75Z" fill="#A24E3F"/>
<path d="M328.832 133.006C328.832 133.596 329.158 134.067 329.551 134.058C329.945 134.05 330.253 133.571 330.245 132.988C330.236 132.406 329.911 131.936 329.517 131.936C329.123 131.936 328.824 132.423 328.832 133.006Z" fill="#263238"/>
<path d="M329.688 131.961L328.404 131.482C328.404 131.482 329.055 132.543 329.688 131.961Z" fill="#263238"/>
<path d="M321.548 132.989C321.548 133.571 321.873 134.041 322.267 134.033C322.661 134.024 322.969 133.554 322.96 132.963C322.952 132.372 322.626 131.91 322.241 131.919C321.856 131.927 321.539 132.398 321.548 132.989Z" fill="#263238"/>
<path d="M322.404 131.944L321.12 131.456C321.12 131.456 321.77 132.517 322.404 131.944Z" fill="#263238"/>
<path d="M328.704 128.084C329.264 127.994 329.837 128.035 330.379 128.203C330.921 128.371 331.417 128.661 331.828 129.051" stroke="#263238" stroke-width="0.707962" stroke-linecap="round" stroke-linejoin="round"/>
<path d="M323.568 127.972C323.077 127.867 322.568 127.875 322.08 127.995C321.592 128.115 321.138 128.345 320.752 128.666" stroke="#263238" stroke-width="0.707962" stroke-linecap="round" stroke-linejoin="round"/>
<path d="M325.58 140.282C325.946 141.074 326.255 141.892 326.504 142.73L326.958 142.67C329.021 142.379 329.885 141.566 330.219 140.744C330.378 140.359 330.446 139.943 330.416 139.528C330.399 139.285 330.347 139.046 330.262 138.818C329.064 139.558 327.721 140.034 326.324 140.213C325.854 140.256 325.58 140.282 325.58 140.282Z" fill="#263238"/>
<path d="M326.282 140.17L326.573 140.889C328.516 140.615 329.851 140.162 330.373 139.485C330.356 139.242 330.304 139.003 330.219 138.775C329.021 139.515 327.679 139.991 326.282 140.17Z" fill="white"/>
<path d="M326.992 142.67C329.055 142.379 329.92 141.565 330.253 140.744C329.469 140.872 328.713 141.135 328.019 141.523C327.568 141.791 327.209 142.191 326.992 142.67Z" fill="#DE5753"/>
<path d="M337.658 134.512C337.658 134.512 334.105 128.785 334.448 124.24C334.448 124.24 320.118 118.993 319.947 133.348C319.947 133.348 318.098 120.679 330.33 119.943C342.563 119.207 343.17 137.123 337.05 142.695C337.05 142.704 339.832 138.099 337.658 134.512Z" fill="#263238"/>
<path d="M336.545 136.104C336.585 135.278 336.95 134.5 337.561 133.942C338.172 133.384 338.979 133.09 339.806 133.125C342.023 133.279 343.23 137.773 337.795 139.066C337.007 139.212 336.536 138.458 336.545 136.104Z" fill="#B97964"/>
<path d="M334.448 124.248C333.771 125.486 333.404 126.87 333.378 128.28C333.378 130.514 336.494 134.803 336.545 136.061C336.596 137.32 335.689 139.485 336.673 140.744C336.516 140.162 336.537 139.547 336.734 138.977C336.931 138.408 337.295 137.911 337.778 137.551C339.49 136.386 341.013 132.826 339.113 130.317C337.213 127.809 339.027 124.557 339.027 124.557C339.027 124.557 336.408 121.552 334.448 124.248Z" fill="#263238"/>
<path d="M349.394 156.828C357.902 164.07 337.718 184.571 327.994 189.356C318.269 194.141 284.569 199.928 284.569 199.928L283.892 194.21C283.892 194.21 318.988 186.069 323.517 181.592C328.045 177.115 347.716 155.399 349.394 156.828Z" fill="#B97964"/>
<path d="M283.884 194.21C283.884 194.21 281.513 192.695 280.323 192.9C279.133 193.105 270.171 198.233 270.505 198.892C270.838 199.551 274.057 203.266 275.247 203.78C276.437 204.293 284.731 201.143 284.56 199.928C284.389 198.712 283.884 194.21 283.884 194.21Z" fill="#B97964"/>
<path d="M344.968 155.553C342.135 158.48 335.929 162.606 326.701 161.896C318.526 161.271 317.841 155.347 317.953 153.01C320.135 152.865 322.926 152.736 325.528 152.753C329.692 152.903 333.839 153.346 337.94 154.08C340.311 154.457 342.665 154.936 344.968 155.553Z" fill="#B97964"/>
<path d="M218.819 74.1982H181.72C178.827 74.1982 176.482 76.5437 176.482 79.437V99.8012C176.482 102.694 178.827 105.04 181.72 105.04H218.819C221.713 105.04 224.058 102.694 224.058 99.8012V79.437C224.058 76.5437 221.713 74.1982 218.819 74.1982Z" fill="#009944"/>
<path d="M193.302 87.8855H192.146V80.2671H195.425V81.4227H193.302V83.4942H194.851V84.6498H193.302V87.8855Z" fill="white"/>
<path d="M198.027 80.2671C198.286 80.2431 198.547 80.2784 198.79 80.3704C199.033 80.4623 199.253 80.6085 199.431 80.7978C199.715 81.1662 199.855 81.6259 199.825 82.0903V83.1946C199.829 83.4533 199.777 83.7099 199.672 83.9464C199.567 84.183 199.412 84.3938 199.217 84.5642L200.073 87.8855H198.832L198.138 85.0179H197.368V87.8855H196.221V80.2671H198.027ZM198.712 82.1075C198.724 82.0176 198.716 81.926 198.687 81.8399C198.659 81.7538 198.611 81.6754 198.547 81.6108C198.483 81.5462 198.406 81.4972 198.32 81.4675C198.234 81.4379 198.143 81.4284 198.053 81.4398H197.359V83.8879H198.053C198.139 83.8911 198.226 83.8751 198.306 83.8411C198.386 83.8071 198.457 83.7558 198.515 83.6911C198.578 83.6315 198.627 83.5598 198.661 83.4803C198.695 83.4008 198.712 83.3152 198.712 83.2288V82.1075Z" fill="white"/>
<path d="M201.049 87.8855V80.2671H204.319V81.4227H202.196V83.4942H203.728V84.6498H202.17V86.7299H204.293V87.8855H201.049Z" fill="white"/>
<path d="M205.115 87.8855V80.2671H208.385V81.4227H206.296V83.4942H207.845V84.6498H206.296V86.7299H208.419V87.8855H205.115Z" fill="white"/>
<path d="M186.959 96.2659C186.978 96.754 186.83 97.2341 186.539 97.6269C186.347 97.8916 186.069 98.0819 185.752 98.1662C185.544 98.2286 185.327 98.2575 185.11 98.2518C184.712 98.2674 184.321 98.1499 183.997 97.9179C183.742 97.7217 183.54 97.466 183.407 97.1732C183.258 96.832 183.174 96.4664 183.158 96.0947L184.254 96.0091C184.262 96.3612 184.385 96.701 184.605 96.9763C184.661 97.0469 184.733 97.1031 184.814 97.1404C184.896 97.1776 184.986 97.1947 185.076 97.1903C185.199 97.188 185.32 97.1526 185.425 97.0879C185.531 97.0232 185.617 96.9315 185.675 96.8223C185.762 96.6686 185.803 96.4935 185.795 96.3172C185.776 95.9605 185.623 95.6241 185.367 95.3756L184.34 94.4083C184.024 94.1189 183.753 93.7843 183.535 93.4154C183.364 93.0848 183.276 92.7176 183.278 92.3454C183.258 92.0455 183.311 91.7451 183.433 91.4706C183.556 91.196 183.743 90.9556 183.98 90.7703C184.29 90.5452 184.667 90.4306 185.05 90.4451C185.417 90.4368 185.779 90.5317 186.094 90.719C186.327 90.8651 186.519 91.0684 186.651 91.3096C186.79 91.5755 186.874 91.8665 186.899 92.1656L185.803 92.3711C185.787 92.1065 185.692 91.8529 185.529 91.6435C185.474 91.5789 185.404 91.5283 185.325 91.4956C185.246 91.4629 185.161 91.449 185.076 91.4551C184.979 91.4534 184.883 91.4779 184.798 91.5261C184.714 91.5743 184.644 91.6444 184.596 91.7291C184.503 91.9025 184.456 92.0971 184.459 92.294C184.483 92.6897 184.644 93.0648 184.913 93.3555C185.068 93.5344 185.24 93.6978 185.427 93.8434C185.608 93.9885 185.783 94.1428 185.949 94.3056C186.207 94.559 186.429 94.8471 186.608 95.1616C186.675 95.2779 186.735 95.3979 186.788 95.5211C186.888 95.7575 186.946 96.0095 186.959 96.2659Z" fill="white"/>
<path d="M189.056 94.9303V98.1575H187.909V90.5391H189.056V93.7747H190.443V90.5391H191.598V98.1575H190.443V94.9303H189.056Z" fill="white"/>
<path d="M193.773 98.1575H192.6V90.5391H193.747L193.773 98.1575Z" fill="white"/>
<path d="M196.606 90.5395C196.855 90.528 197.103 90.5694 197.335 90.6609C197.567 90.7523 197.776 90.8918 197.95 91.0702C198.265 91.4253 198.431 91.8884 198.412 92.3627V93.467C198.418 93.7062 198.374 93.9441 198.283 94.1652C198.192 94.3864 198.055 94.5859 197.882 94.751C197.718 94.9247 197.52 95.0625 197.301 95.1553C197.081 95.2482 196.845 95.2942 196.606 95.2903H195.947V98.1579H194.8V90.5395H196.606ZM197.299 92.3799C197.303 92.292 197.29 92.2042 197.259 92.1218C197.228 92.0394 197.181 91.9641 197.12 91.9005C197.058 91.8369 196.983 91.7871 196.9 91.7547C196.818 91.7222 196.729 91.7077 196.64 91.7122H195.947V94.1603H196.64C196.727 94.1629 196.813 94.1467 196.893 94.1127C196.973 94.0787 197.044 94.0278 197.103 93.9635C197.165 93.9039 197.215 93.8322 197.249 93.7527C197.283 93.6732 197.3 93.5876 197.299 93.5012V92.3799Z" fill="white"/>
<path d="M201.16 90.5391C201.407 90.5289 201.654 90.5708 201.884 90.6623C202.114 90.7537 202.322 90.8926 202.495 91.0698C202.81 91.4249 202.976 91.888 202.958 92.3624V93.4666C202.964 93.7059 202.92 93.9437 202.828 94.1649C202.737 94.386 202.6 94.5856 202.427 94.7506C202.265 94.9233 202.068 95.0604 201.85 95.1532C201.632 95.2461 201.397 95.2926 201.16 95.2899H200.492V98.1575H199.345V90.5391H201.16ZM201.845 92.3795C201.849 92.2916 201.835 92.2038 201.804 92.1214C201.773 92.039 201.726 91.9637 201.665 91.9001C201.603 91.8365 201.528 91.7868 201.446 91.7543C201.363 91.7218 201.274 91.7074 201.186 91.7118H200.492V94.16H201.16C201.247 94.1632 201.333 94.1472 201.413 94.1132C201.493 94.0791 201.564 94.0279 201.622 93.9631C201.685 93.9036 201.735 93.8318 201.768 93.7523C201.802 93.6729 201.82 93.5873 201.819 93.5009L201.845 92.3795Z" fill="white"/>
<path d="M205.003 98.1575H203.856V90.5391H205.003V98.1575Z" fill="white"/>
<path d="M207.323 90.5391L208.847 95.6751V90.5391H209.994V98.1575H208.761L207.152 93.3039V98.1831H205.996V90.5647L207.323 90.5391Z" fill="white"/>
<path d="M212.827 98.2603C212.586 98.264 212.347 98.218 212.125 98.1252C211.902 98.0325 211.702 97.8949 211.535 97.7211C211.365 97.5535 211.23 97.3535 211.139 97.133C211.048 96.9124 211.002 96.6757 211.004 96.4371V92.2769C211.004 91.7933 211.196 91.3296 211.538 90.9876C211.88 90.6457 212.344 90.4536 212.827 90.4536C213.311 90.4536 213.775 90.6457 214.117 90.9876C214.458 91.3296 214.651 91.7933 214.651 92.2769V93.1329H213.452V92.2769C213.455 92.1897 213.44 92.1028 213.407 92.0218C213.375 91.9408 213.326 91.8674 213.264 91.8061C213.203 91.7432 213.129 91.6934 213.049 91.6596C212.968 91.6257 212.881 91.6086 212.793 91.6092C212.618 91.6136 212.452 91.6857 212.329 91.8102C212.206 91.9347 212.136 92.102 212.134 92.2769V96.4456C212.133 96.532 212.151 96.6176 212.185 96.6971C212.218 96.7766 212.268 96.8483 212.331 96.9079C212.391 96.9693 212.463 97.0178 212.542 97.0502C212.622 97.0826 212.707 97.0982 212.793 97.0962C212.88 97.0984 212.967 97.0828 213.048 97.0505C213.129 97.0181 213.202 96.9696 213.264 96.9079C213.325 96.8479 213.374 96.7759 213.406 96.6964C213.439 96.6168 213.454 96.5315 213.452 96.4456V94.9305H212.819V93.7749H214.651V96.4371C214.657 96.6783 214.612 96.9182 214.519 97.141C214.426 97.3638 214.287 97.5644 214.111 97.7296C213.944 97.9004 213.744 98.0355 213.524 98.1268C213.303 98.218 213.066 98.2634 212.827 98.2603Z" fill="white"/>
<path d="M216.226 94.7937V90.5137H217.424V94.7937L217.338 96.266H216.311L216.226 94.7937ZM216.226 98.1578V97.0022H217.424V98.1578H216.226Z" fill="white"/>
<path d="M183.509 102.335C183.509 102.335 183.894 111.751 175.617 115.38C175.617 115.38 184.177 115.158 190.023 102.335H183.509Z" fill="#009944"/>
<path d="M167.408 350.481L174.573 351.234L175.917 335.784L168.752 335.03L167.408 350.481Z" fill="#EBB376"/>
<path d="M131.67 349.958H138.612L139.186 333.883H132.235L131.67 349.958Z" fill="#EBB376"/>
<path d="M139.571 349.154H131.139C131.001 349.155 130.867 349.203 130.76 349.29C130.652 349.377 130.578 349.498 130.549 349.633L129.179 355.814C129.151 355.945 129.15 356.08 129.174 356.211C129.199 356.343 129.249 356.468 129.323 356.58C129.396 356.692 129.49 356.789 129.601 356.864C129.711 356.94 129.835 356.993 129.966 357.021C130.043 357.029 130.121 357.029 130.198 357.021C132.92 356.978 134.906 356.807 138.338 356.807C140.444 356.807 146.813 357.029 149.723 357.029C152.633 357.029 153.019 354.153 151.829 353.888C146.479 352.723 142.413 351.106 140.701 349.565C140.386 349.296 139.985 349.15 139.571 349.154Z" fill="#263238"/>
<path d="M140.05 350.104C140.017 350.097 139.987 350.081 139.964 350.056C139.941 350.032 139.926 350.001 139.922 349.967C139.918 349.936 139.924 349.904 139.937 349.875C139.951 349.846 139.972 349.822 139.999 349.805C140.247 349.651 142.49 348.272 143.26 348.666C143.348 348.707 143.421 348.772 143.471 348.854C143.522 348.937 143.546 349.032 143.543 349.128C143.56 349.288 143.538 349.45 143.478 349.599C143.418 349.748 143.323 349.88 143.2 349.984C142.809 350.251 142.337 350.375 141.865 350.335C141.253 350.327 140.644 350.25 140.05 350.104ZM140.521 349.882C141.333 350.149 142.215 350.103 142.995 349.753C143.078 349.681 143.141 349.589 143.18 349.486C143.219 349.383 143.232 349.272 143.217 349.163C143.217 349.026 143.157 348.966 143.115 348.966C143.049 348.931 142.975 348.916 142.901 348.923C142.052 349.089 141.244 349.417 140.521 349.89V349.882Z" fill="#009944"/>
<path d="M139.999 350.147C139.975 350.131 139.956 350.109 139.943 350.084C139.929 350.058 139.922 350.03 139.922 350.001C139.922 349.907 140.102 347.904 140.906 347.254C141.001 347.173 141.112 347.113 141.231 347.076C141.35 347.039 141.475 347.027 141.6 347.04C141.725 347.039 141.847 347.083 141.943 347.162C142.04 347.242 142.106 347.353 142.13 347.476C142.276 348.212 140.889 349.736 140.17 350.121H140.093C140.08 350.132 140.065 350.14 140.049 350.144C140.032 350.149 140.015 350.149 139.999 350.147ZM141.112 347.451C140.623 348.074 140.339 348.834 140.298 349.625C141.009 349.085 141.891 347.913 141.805 347.476C141.805 347.433 141.805 347.305 141.565 347.305H141.488C141.349 347.305 141.215 347.357 141.112 347.451Z" fill="#009944"/>
<path d="M175.326 348.932H166.92C166.782 348.932 166.648 348.98 166.54 349.067C166.433 349.155 166.359 349.276 166.329 349.411L164.96 355.591C164.906 355.858 164.96 356.135 165.109 356.362C165.258 356.589 165.49 356.749 165.756 356.807H165.978C168.709 356.764 170.695 356.593 174.119 356.593C176.225 356.593 182.593 356.815 185.504 356.815C188.414 356.815 188.799 353.939 187.61 353.674C182.26 352.51 178.194 350.892 176.482 349.394C176.168 349.1 175.755 348.935 175.326 348.932Z" fill="#263238"/>
<path d="M175.805 349.899C175.772 349.891 175.741 349.872 175.718 349.846C175.696 349.82 175.681 349.788 175.677 349.753C175.674 349.721 175.681 349.688 175.696 349.66C175.711 349.631 175.734 349.607 175.762 349.591C176.011 349.437 178.253 348.059 179.015 348.452C179.103 348.493 179.176 348.558 179.227 348.641C179.277 348.723 179.302 348.818 179.298 348.915C179.319 349.075 179.298 349.237 179.238 349.387C179.179 349.537 179.081 349.669 178.955 349.771C178.564 350.039 178.092 350.163 177.62 350.121C177.009 350.112 176.401 350.037 175.805 349.899ZM176.285 349.668C177.092 349.943 177.975 349.897 178.75 349.539C178.833 349.467 178.897 349.375 178.935 349.272C178.974 349.169 178.987 349.058 178.972 348.949C178.972 348.82 178.913 348.752 178.87 348.752C178.803 348.72 178.73 348.706 178.656 348.709C177.81 348.871 177.005 349.196 176.285 349.668Z" fill="#009944"/>
<path d="M175.762 349.933C175.737 349.916 175.715 349.893 175.701 349.867C175.686 349.84 175.677 349.81 175.677 349.779C175.677 349.685 175.857 347.69 176.661 347.031C176.755 346.948 176.865 346.887 176.985 346.852C177.105 346.816 177.231 346.807 177.355 346.826C177.479 346.823 177.601 346.865 177.698 346.943C177.795 347.022 177.861 347.131 177.885 347.254C178.031 347.99 176.644 349.514 175.925 349.907H175.848C175.823 349.924 175.793 349.933 175.762 349.933ZM176.875 347.228C176.373 347.847 176.074 348.607 176.019 349.402C176.73 348.863 177.611 347.69 177.526 347.254C177.526 347.211 177.526 347.091 177.286 347.091H177.209C177.086 347.1 176.969 347.148 176.875 347.228Z" fill="#009944"/>
<path opacity="0.2" d="M168.752 335.03L175.917 335.784L175.215 343.753L168.05 343L168.752 335.03Z" fill="black"/>
<path opacity="0.2" d="M132.235 333.892H139.186L138.886 342.178H131.935L132.235 333.892Z" fill="black"/>
<path d="M135.102 192.857H171.91C175.412 211.98 186.377 279.664 178.51 339.969L166.064 338.428C166.064 338.428 167.22 258.367 156.211 228.766C154.945 244.611 153.438 261.465 152.137 270.428C148.944 292.504 142.096 340.739 142.096 340.739H129.376C129.376 340.739 131.944 294.567 133.168 272.876C134.478 249.327 135.051 197.736 135.102 192.857Z" fill="#263238"/>
<path opacity="0.2" d="M135.102 192.857H171.91C175.412 211.98 186.377 279.664 178.51 339.969L166.064 338.428C166.064 338.428 167.22 258.367 156.211 228.766C154.945 244.611 153.438 261.465 152.137 270.428C148.944 292.504 142.096 340.739 142.096 340.739H129.376C129.376 340.739 131.944 294.567 133.168 272.876C134.478 249.327 135.051 197.736 135.102 192.857Z" fill="white"/>
<path d="M173.511 134.084C173.511 134.084 195.767 155.082 206.039 158.591C216.311 162.101 242.719 175.104 242.719 175.104L246.768 171.911C246.768 171.731 249.721 174.016 249.755 175.6C249.755 176.747 246.853 186.36 246.246 186.351C243.421 186.351 240.296 179.88 240.296 179.88C240.296 179.88 206.484 171.072 200.415 168.418C194.346 165.765 169.385 146.282 169.385 146.282L173.511 134.084Z" fill="#EBB376"/>
<path d="M168.572 129.042C173.657 128.888 200.475 152.428 202.555 154.799C204.635 157.17 225.47 164.275 227.833 167.836C230.196 171.397 226.652 175.6 220.891 176.114C215.13 176.627 175.412 158.797 169.368 150.108C163.325 141.42 168.572 129.042 168.572 129.042Z" fill="#009944"/>
<path opacity="0.2" d="M168.572 129.042C173.657 128.888 200.475 152.428 202.555 154.799C204.635 157.17 225.47 164.275 227.833 167.836C230.196 171.397 226.652 175.6 220.891 176.114C215.13 176.627 175.412 158.797 169.368 150.108C163.325 141.42 168.572 129.042 168.572 129.042Z" fill="black"/>
<path d="M181.643 148.268L184.579 207.914H224.452L254.925 200.621V144.553L212.288 144.313L181.643 148.268Z" fill="#009944"/>
<path opacity="0.6" d="M181.643 148.268L184.579 207.914H224.452L254.925 200.621V144.553L212.288 144.313L181.643 148.268Z" fill="white"/>
<path opacity="0.2" d="M181.643 148.268L222.081 149.629L224.452 207.914H184.579L181.643 148.268Z" fill="white"/>
<path opacity="0.4" d="M222.081 149.629L254.925 144.553L212.288 144.313L181.643 148.268L222.081 149.629Z" fill="white"/>
<path opacity="0.2" d="M196.752 148.773L201.93 147.968L208.368 148.268L202.555 148.97V152.248L197.017 151.863L196.752 148.773Z" fill="black"/>
<path opacity="0.2" d="M227.277 144.399L225.582 144.75H231.334L233.423 144.433L227.277 144.399Z" fill="black"/>
<path opacity="0.2" d="M224.452 154.457L224.905 160.218L235.854 158.352V152.685L224.452 154.457Z" fill="black"/>
<path opacity="0.2" d="M241.606 195.04V202.033L253.573 199.217V192.857L241.606 195.04Z" fill="black"/>
<path opacity="0.2" d="M211.021 192.857C211.021 192.857 212.151 196.358 214.291 197.445V203.506L212.656 205.218H218.28L215.301 203.3L215.19 197.471C216.039 197.008 216.764 196.347 217.302 195.543C217.84 194.74 218.175 193.818 218.28 192.857H215.198L214.651 194.697L215.644 194.809L214.651 196.88V195.819H213.837L214.651 192.891L211.021 192.857Z" fill="black"/>
<path opacity="0.2" d="M156.211 228.775C158.026 233.96 159.403 239.289 160.329 244.705C161.356 230.615 157.239 215.661 157.239 215.661L156.211 228.775Z" fill="black"/>
<path d="M168.572 129.042C168.572 129.042 145.143 127.904 127.681 132.312C127.681 132.312 133.005 179.974 133.339 203.994C133.348 204.505 133.459 205.01 133.665 205.479C133.871 205.947 134.168 206.37 134.54 206.722C134.911 207.075 135.349 207.349 135.828 207.53C136.306 207.712 136.817 207.795 137.328 207.777L172.501 206.553C173.009 206.535 173.508 206.418 173.969 206.206C174.431 205.995 174.847 205.695 175.192 205.323C175.537 204.95 175.805 204.513 175.981 204.037C176.157 203.561 176.237 203.054 176.216 202.547C175.703 189.698 173.682 148.165 168.572 129.042Z" fill="#009944"/>
<path d="M134.315 206.485V210.499L175.617 208.496L175.3 205.201L134.315 206.485Z" fill="#263238"/>
<path d="M153.763 138.672C153.763 138.672 161.638 174.059 160.491 206.938" stroke="#263238" stroke-miterlimit="10"/>
<path d="M127.039 151.641C127.039 151.641 134.358 171.834 136.523 176.071C138.689 180.308 181.318 184.485 181.318 184.485C181.318 184.485 190.734 190.58 192.446 190.298C194.158 190.015 198.078 182.02 196.366 181.164C194.654 180.308 189.45 174.419 186.634 174.513C183.817 174.607 181.352 177.74 181.352 177.74C181.352 177.74 146.256 167.682 144.364 166.937C143.012 166.398 137.465 146.847 137.465 146.847L127.039 151.641Z" fill="#EBB376"/>
<path d="M127.69 132.312C121.894 132.458 119.763 141.84 127.039 162.692C131.713 176.114 142.926 183.236 160.491 186.352C178.057 189.467 178.382 179.35 174.718 175.848C171.054 172.347 150.913 167.16 147.669 164.224C144.424 161.288 139.853 132.013 127.69 132.312Z" fill="#009944"/>
<path d="M174.718 175.848L173.622 185.367L176.576 186.351L177.603 175.848H174.718Z" fill="#263238"/>
<path opacity="0.2" d="M127.69 132.312C121.894 132.458 119.763 141.84 127.039 162.692C131.713 176.114 142.926 183.236 160.491 186.352C178.057 189.467 178.382 179.35 174.718 175.848C171.054 172.347 150.913 167.16 147.669 164.224C144.424 161.288 139.853 132.013 127.69 132.312Z" fill="black"/>
<path d="M141 129.042C141 129.042 152.659 139.862 154.628 138.706C156.597 137.551 157.196 129.735 157.196 129.735L141 129.042Z" fill="white"/>
<path d="M141.009 129.95C144.433 133.023 152.676 131.884 152.676 131.884C152.676 131.884 157.812 130.472 156.759 128.854C153.712 128.349 152.24 126.928 151.623 125.113C151.289 123.984 151.184 122.8 151.315 121.629C151.363 120.977 151.449 120.328 151.572 119.686L141.3 112.102C142.678 117.11 144.322 126.32 141.009 129.95Z" fill="#EBB376"/>
<path opacity="0.2" d="M143.705 116.93C144.108 123.067 149.158 124.762 151.632 125.113C151.297 123.984 151.192 122.799 151.324 121.629L143.705 116.93Z" fill="black"/>
<path d="M161.442 97.9692C161.442 97.9692 162.982 104.997 161.741 110.039C160.5 115.081 159.019 115.603 157.461 115.937C155.903 116.271 155.955 98.577 155.955 98.577L161.442 97.9692Z" fill="#009944"/>
<path opacity="0.5" d="M159.995 98.9624C159.995 98.9624 162.366 105.896 161.125 110.946C159.884 115.997 158.403 116.51 156.794 116.844C155.184 117.178 155.296 99.4846 155.296 99.4846L159.995 98.9624Z" fill="black"/>
<path d="M159.156 95.6582C159.156 95.6582 162.161 104.86 157.752 109.354C153.344 113.848 150.433 96.2488 150.433 96.2488L159.156 95.6582Z" fill="#263238"/>
<path d="M144.467 119.241C145.772 120.623 147.495 121.539 149.37 121.848C151.246 122.157 153.171 121.843 154.85 120.953C157.043 119.837 158.727 117.927 159.558 115.612C159.67 115.303 159.772 114.97 159.858 114.636C161.365 108.455 160.466 98.2433 153.746 95.4785C152.264 94.8597 150.648 94.6305 149.052 94.8127C147.456 94.9948 145.933 95.5823 144.628 96.5191C143.323 97.456 142.279 98.7111 141.597 100.165C140.914 101.619 140.614 103.224 140.726 104.826C141.103 111.657 140.992 115.714 144.467 119.241Z" fill="#EBB376"/>
<path d="M151.152 106.761C151.11 107.317 151.444 107.779 151.812 107.779C152.18 107.779 152.479 107.317 152.479 106.761C152.479 106.204 152.188 105.75 151.82 105.75C151.452 105.75 151.161 106.196 151.152 106.761Z" fill="#263238"/>
<path d="M157.504 106.786C157.504 107.343 157.804 107.805 158.163 107.805C158.523 107.805 158.831 107.351 158.839 106.795C158.848 106.239 158.54 105.776 158.172 105.776C157.804 105.776 157.504 106.256 157.504 106.786Z" fill="#263238"/>
<path d="M155.467 107.06C156.127 108.772 157.02 110.385 158.12 111.854C157.736 112.128 157.296 112.315 156.832 112.401C156.367 112.486 155.89 112.469 155.432 112.35L155.467 107.06Z" fill="#D58745"/>
<path d="M149.201 104.706C149.26 104.714 149.32 104.706 149.376 104.683C149.431 104.661 149.48 104.625 149.518 104.578C149.76 104.245 150.076 103.974 150.442 103.785C150.807 103.597 151.212 103.496 151.623 103.491C151.71 103.496 151.796 103.466 151.862 103.408C151.927 103.351 151.968 103.27 151.974 103.183C151.978 103.14 151.973 103.097 151.96 103.056C151.946 103.015 151.925 102.977 151.897 102.945C151.87 102.912 151.836 102.885 151.797 102.866C151.759 102.847 151.717 102.835 151.675 102.832C151.153 102.827 150.639 102.947 150.173 103.18C149.707 103.414 149.303 103.755 148.995 104.176C148.942 104.244 148.918 104.331 148.927 104.417C148.937 104.503 148.98 104.583 149.047 104.638C149.093 104.67 149.146 104.693 149.201 104.706Z" fill="#263238"/>
<path d="M160.209 104.62C160.273 104.638 160.341 104.638 160.406 104.62C160.445 104.602 160.48 104.576 160.509 104.544C160.538 104.512 160.56 104.475 160.574 104.434C160.588 104.394 160.595 104.351 160.592 104.308C160.59 104.265 160.579 104.223 160.56 104.184C160.345 103.708 160.019 103.291 159.61 102.968C159.2 102.644 158.719 102.424 158.206 102.326C158.163 102.32 158.12 102.323 158.078 102.334C158.036 102.345 157.997 102.364 157.963 102.39C157.928 102.417 157.9 102.45 157.878 102.487C157.857 102.525 157.843 102.566 157.838 102.609C157.828 102.695 157.852 102.781 157.905 102.85C157.957 102.919 158.035 102.964 158.12 102.977C158.523 103.066 158.898 103.248 159.218 103.508C159.537 103.768 159.792 104.099 159.961 104.475C159.99 104.515 160.027 104.548 160.07 104.573C160.113 104.598 160.16 104.614 160.209 104.62Z" fill="#263238"/>
<path d="M145.101 115.055C145.464 116.433 146.176 117.694 147.169 118.717C148.162 119.739 149.401 120.489 150.767 120.893C154.585 121.937 156.357 119.969 156.357 119.969C155.378 120.977 154.101 121.645 152.715 121.874C151.328 122.104 149.905 121.883 148.653 121.244C146.421 120.11 144.554 118.368 143.269 116.219L145.101 115.055Z" fill="#263238"/>
<path d="M145.811 96.2402L146.308 99.2534C145.808 99.522 145.427 99.9681 145.24 100.504C145.053 101.039 145.074 101.625 145.297 102.147C146.385 104.646 145.109 108.661 143.226 110.321C143.226 110.321 143.123 109.217 142.199 109.517C141.274 109.816 141.788 115.56 143.722 118.214C143.722 118.214 140.863 115.86 139.057 109.893C137.345 104.381 137.003 99.7413 138.047 97.5328L145.811 96.2402Z" fill="#263238"/>
<path d="M137.696 110.424C138.455 111.984 139.799 113.181 141.437 113.754C143.603 114.49 144.861 112.573 144.33 110.459C143.876 108.575 142.207 105.87 139.973 106.067C137.739 106.264 136.797 108.498 137.696 110.424Z" fill="#EBB376"/>
<path d="M161.664 99.3476C161.664 99.3476 147.506 98.8939 146.71 101.659C145.914 104.424 146.658 110.107 146.855 114.054C146.992 116.759 144.784 118.085 142.644 118.214C142.416 118.231 142.187 118.231 141.959 118.214C141.262 118.188 140.582 117.997 139.973 117.657C137.405 116.117 134.341 113.728 132.603 106.718C130.335 97.5671 134.683 87.6974 147.771 87.5776C160.86 87.4577 161.664 99.3476 161.664 99.3476Z" fill="#009944"/>
<path opacity="0.5" d="M160.851 99.51C160.851 99.51 147.506 98.8937 146.71 101.659C145.914 104.423 146.658 110.107 146.855 114.053C146.992 116.758 144.784 118.085 142.644 118.214C143.543 118.06 144.484 117.358 144.561 115.646C144.655 113.497 143.217 104.047 144.561 102.232C145.905 100.417 150.459 98.9879 155.141 98.6283C159.824 98.2688 160.851 99.51 160.851 99.51Z" fill="black"/>
<path d="M142.952 99.0138C142.952 99.0138 141.565 100.794 142.242 101.881C142.918 102.969 164.164 101.188 164.42 100.657C164.677 100.127 162.032 99.1936 161.638 98.9454C161.245 98.6971 161.133 96.3774 160.363 96.1548C159.593 95.9322 148.944 95.1961 142.952 99.0138Z" fill="#263238"/>
<path d="M144.664 100.152C144.676 100.223 144.674 100.297 144.658 100.367C144.642 100.438 144.612 100.504 144.569 100.563C144.527 100.622 144.474 100.672 144.412 100.71C144.35 100.748 144.282 100.774 144.21 100.785C144.139 100.797 144.066 100.795 143.995 100.778C143.925 100.762 143.858 100.732 143.8 100.69C143.741 100.648 143.691 100.594 143.653 100.533C143.614 100.471 143.589 100.403 143.577 100.332C143.565 100.26 143.567 100.187 143.584 100.117C143.6 100.046 143.63 99.9799 143.673 99.921C143.715 99.8622 143.768 99.8123 143.829 99.7741C143.891 99.7358 143.959 99.7101 144.031 99.6983C144.102 99.6861 144.175 99.6881 144.246 99.7044C144.316 99.7206 144.383 99.7507 144.442 99.7929C144.501 99.8351 144.551 99.8885 144.589 99.9502C144.627 100.012 144.653 100.08 144.664 100.152Z" fill="#009944"/>
<path d="M155.792 113.651C155.49 114.489 155.25 115.347 155.073 116.219H154.602C152.471 116.117 151.512 115.363 151.101 114.567C150.909 114.17 150.812 113.733 150.819 113.292C150.817 113.043 150.852 112.795 150.921 112.556C152.21 113.201 153.624 113.56 155.064 113.609C155.484 113.643 155.792 113.651 155.792 113.651Z" fill="#263238"/>
<path d="M155.039 113.6L154.808 114.362C152.796 114.259 151.384 113.925 150.793 113.283C150.791 113.034 150.826 112.786 150.896 112.547C152.185 113.192 153.598 113.552 155.039 113.6Z" fill="white"/>
<path d="M154.576 116.211C152.445 116.108 151.486 115.355 151.075 114.559C151.885 114.609 152.679 114.804 153.421 115.132C153.913 115.357 154.318 115.736 154.576 116.211Z" fill="#DE5753"/>
<path d="M138.835 130.258L139.965 126.346C139.965 126.346 151.82 130.754 153.763 138.706C153.763 138.706 152.907 129.059 155.843 126.346L157.864 128.914C157.864 128.914 158.12 138.544 154.628 139.725C151.135 140.906 138.835 130.258 138.835 130.258Z" fill="#009944"/>
<path opacity="0.2" d="M138.835 130.258L139.965 126.346C139.965 126.346 151.82 130.754 153.763 138.706C153.763 138.706 152.907 129.059 155.843 126.346L157.864 128.914C157.864 128.914 158.12 138.544 154.628 139.725C151.135 140.906 138.835 130.258 138.835 130.258Z" fill="black"/>
<path d="M179.965 342.88L164.532 340.586L165.003 336.306L181.053 338.411L179.965 342.88Z" fill="#009944"/>
<path opacity="0.6" d="M179.965 342.88L164.532 340.586L165.003 336.306L181.053 338.411L179.965 342.88Z" fill="white"/>
<path d="M143.594 340.842H128.623V336.365L144.159 336.074L143.594 340.842Z" fill="#009944"/>
<path opacity="0.6" d="M143.594 340.842H128.623V336.365L144.159 336.074L143.594 340.842Z" fill="white"/>
</svg>
