<svg width="16" height="17" viewBox="0 0 16 17" fill="none" xmlns="http://www.w3.org/2000/svg">
<path d="M7.99988 7.04541V10.1436H12.3053C12.1163 11.14 11.5489 11.9836 10.698 12.5509L13.2944 14.5655C14.8071 13.1691 15.6798 11.1182 15.6798 8.68185C15.6798 8.11459 15.6289 7.56908 15.5344 7.0455L7.99988 7.04541Z" fill="#4285F4"/>
<path d="M3.51649 10.0227L2.93092 10.471L0.858154 12.0855C2.17451 14.6964 4.8725 16.5 7.99974 16.5C10.1597 16.5 11.9706 15.7873 13.2942 14.5655L10.6979 12.5509C9.98516 13.0309 9.07606 13.3219 7.99974 13.3219C5.91976 13.3219 4.15254 11.9183 3.51976 10.0273L3.51649 10.0227Z" fill="#34A853"/>
<path d="M0.858119 4.91455C0.312695 5.99087 0 7.20543 0 8.49996C0 9.79448 0.312695 11.009 0.858119 12.0854C0.858119 12.0926 3.51998 10.0199 3.51998 10.0199C3.35998 9.53991 3.26541 9.03085 3.26541 8.49987C3.26541 7.96889 3.35998 7.45984 3.51998 6.97984L0.858119 4.91455Z" fill="#FBBC05"/>
<path d="M7.99991 3.68545C9.17811 3.68545 10.2254 4.09271 11.0617 4.87818L13.3526 2.5873C11.9635 1.29278 10.1599 0.5 7.99991 0.5C4.87266 0.5 2.17451 2.29636 0.858154 4.91455L3.51994 6.98001C4.15263 5.08908 5.91992 3.68545 7.99991 3.68545Z" fill="#EA4335"/>
</svg>
